<svg xmlns="http://www.w3.org/2000/svg" version="1.1" xmlns:xlink="http://www.w3.org/1999/xlink" xmlns:svgjs="http://svgjs.dev/svgjs" width="1500" height="1500" viewBox="0 0 1500 1500"><rect width="1500" height="1500" fill="#000000"></rect><g transform="matrix(0.6666666666666666,0,0,0.6666666666666666,249.39393939393938,642.5374383080384)"><svg viewBox="0 0 396 85" data-background-color="#ffffff" preserveAspectRatio="xMidYMid meet" height="321" width="1500" xmlns="http://www.w3.org/2000/svg" xmlns:xlink="http://www.w3.org/1999/xlink"><g id="tight-bounds" transform="matrix(1,0,0,1,0.2400000000000091,0.18372777484455582)"><svg viewBox="0 0 395.52 84.63254445031086" height="84.63254445031086" width="395.52"><g><svg viewBox="0 0 573.5908426843264 122.73577186936821" height="84.63254445031086" width="395.52"><g transform="matrix(1,0,0,1,178.0708426843264,16.96275863028172)"><svg viewBox="0 0 395.52000000000004 88.81025460880477" height="88.81025460880477" width="395.52000000000004"><g id="textblocktransform"><svg viewBox="0 0 395.52000000000004 88.81025460880477" height="88.81025460880477" width="395.52000000000004" id="textblock"><g><svg viewBox="0 0 395.52000000000004 88.81025460880477" height="88.81025460880477" width="395.52000000000004"><g transform="matrix(1,0,0,1,0,0)"><svg width="395.52000000000004" viewBox="3.45 -34.55 155.86389160156253 35" height="88.81025460880477" data-palette-color="#001f3f"><g transform="matrix(1,0,0,1,0,0)"><g><svg width="16.815927734375002" viewBox="1.78 -36.36 74.21 36.36" height="8.239" data-palette-color="#001f3f" id="scriptelement" x="142.4979638671875" y="-34.55"><path d="M12.91-30.02L1.78-30.02 1.78-36.36 31.64-36.36 31.64-30.02 20.51-30.02 20.51 0 12.91 0 12.91-30.02ZM36.57 0L36.57-36.36 46.06-36.36 56.07-11.93 56.5-11.93 66.51-36.36 75.99-36.36 75.99 0 68.53 0 68.53-23.67 68.23-23.67 58.82-0.18 53.74-0.18 44.33-23.76 44.03-23.76 44.03 0 36.57 0Z" opacity="1" transform="matrix(1,0,0,1,0,0)" fill="#ffffff" class="undefined-123" data-fill-palette-color="primary" id="yy-123"></path></svg></g></g><path d="M37.85-28.1Q42.95-28.1 46.08-24.98 49.2-21.85 49.2-16.25L49.2-16.25 49.2 0 42.2 0 42.2-15.3Q42.2-18.55 40.55-20.28 38.9-22 36.05-22L36.05-22Q33.2-22 31.53-20.28 29.85-18.55 29.85-15.3L29.85-15.3 29.85 0 22.85 0 22.85-15.3Q22.85-18.55 21.2-20.28 19.55-22 16.7-22L16.7-22Q13.8-22 12.13-20.28 10.45-18.55 10.45-15.3L10.45-15.3 10.45 0 3.45 0 3.45-27.7 10.45-27.7 10.45-24.35Q11.8-26.1 13.93-27.1 16.05-28.1 18.6-28.1L18.6-28.1Q21.85-28.1 24.4-26.73 26.95-25.35 28.35-22.8L28.35-22.8Q29.7-25.2 32.27-26.65 34.85-28.1 37.85-28.1L37.85-28.1ZM71.2-28.1Q76.15-28.1 79.2-24.98 82.25-21.85 82.25-16.25L82.25-16.25 82.25 0 75.25 0 75.25-15.3Q75.25-18.6 73.6-20.38 71.95-22.15 69.1-22.15L69.1-22.15Q66.2-22.15 64.52-20.38 62.85-18.6 62.85-15.3L62.85-15.3 62.85 0 55.85 0 55.85-27.7 62.85-27.7 62.85-24.25Q64.25-26.05 66.42-27.08 68.6-28.1 71.2-28.1L71.2-28.1ZM114.65-14.45Q114.65-12.95 114.45-11.75L114.45-11.75 94.2-11.75Q94.45-8.75 96.3-7.05 98.15-5.35 100.85-5.35L100.85-5.35Q104.75-5.35 106.4-8.7L106.4-8.7 113.95-8.7Q112.75-4.7 109.35-2.13 105.95 0.45 101 0.45L101 0.45Q97 0.45 93.82-1.33 90.65-3.1 88.87-6.35 87.1-9.6 87.1-13.85L87.1-13.85Q87.1-18.15 88.85-21.4 90.6-24.65 93.75-26.4 96.9-28.15 101-28.15L101-28.15Q104.95-28.15 108.07-26.45 111.2-24.75 112.92-21.63 114.65-18.5 114.65-14.45L114.65-14.45ZM94.25-16.45L107.4-16.45Q107.35-19.15 105.45-20.78 103.55-22.4 100.8-22.4L100.8-22.4Q98.2-22.4 96.42-20.83 94.65-19.25 94.25-16.45L94.25-16.45ZM134.09-21.95L127.89-21.95 127.89-8.55Q127.89-7.15 128.57-6.53 129.24-5.9 130.84-5.9L130.84-5.9 134.09-5.9 134.09 0 129.69 0Q120.84 0 120.84-8.6L120.84-8.6 120.84-21.95 117.54-21.95 117.54-27.7 120.84-27.7 120.84-34.55 127.89-34.55 127.89-27.7 134.09-27.7 134.09-21.95Z" opacity="1" transform="matrix(1,0,0,1,0,0)" fill="#ffffff" class="wordmark-text-0" data-fill-palette-color="primary" id="text-0"></path></svg></g></svg></g></svg></g></svg></g><g><svg viewBox="0 0 157.10487301729822 122.73577186936821" height="122.73577186936821" width="157.10487301729822"><g><svg xmlns="http://www.w3.org/2000/svg" xmlns:xlink="http://www.w3.org/1999/xlink" version="1.1" x="0" y="0" viewBox="8.055000000000001 13.403 48.888 38.19300000000001" enable-background="new 7.5 7.5 50 50" xml:space="preserve" height="122.73577186936821" width="157.10487301729822" class="icon-icon-0" data-fill-palette-color="accent" id="icon-0"><path d="M56.943 22.07c0-1.939-1.578-3.518-3.519-3.518-1.73 0-3.165 1.257-3.456 2.904l-24.612-5.636c-0.466-1.399-1.772-2.417-3.325-2.417-1.941 0-3.52 1.579-3.52 3.519 0 0.825 0.297 1.574 0.774 2.175l-5.917 10.043c-0.527-0.315-1.136-0.508-1.793-0.508-1.941 0-3.52 1.579-3.52 3.519 0 1.94 1.579 3.52 3.52 3.52 0.396 0 0.77-0.08 1.125-0.201l12.489 10.595c-0.4 0.571-0.639 1.263-0.639 2.011 0 1.94 1.579 3.52 3.52 3.52 1.769 0 3.223-1.317 3.468-3.02h15.991c0.245 1.702 1.699 3.02 3.469 3.02 1.94 0 3.519-1.579 3.519-3.52 0-1.749-1.286-3.191-2.961-3.461l2.317-19.071C55.601 25.322 56.943 23.858 56.943 22.07zM49.947 22.478c0.046 0.393 0.15 0.765 0.315 1.107L39.691 27.42c-0.321-1.611-1.744-2.83-3.449-2.83-0.981 0-1.868 0.406-2.508 1.056l-8.849-6.68c0.415-0.577 0.665-1.279 0.665-2.043 0-0.011-0.003-0.021-0.003-0.032L49.947 22.478zM22.032 20.442c0.813 0 1.554-0.289 2.15-0.754l8.971 6.771c-0.203 0.378-0.336 0.793-0.389 1.237l-17.731 3.85c-0.119-0.677-0.431-1.283-0.878-1.768l5.872-9.968C20.597 20.206 21.286 20.442 22.032 20.442zM15.053 32.564l17.731-3.849c0.205 1.171 0.985 2.143 2.042 2.61l-5.551 13.46c-0.377-0.139-0.78-0.227-1.206-0.227-0.831 0-1.585 0.302-2.188 0.784L13.659 34.974C14.419 34.41 14.936 33.551 15.053 32.564zM30.16 45.263l5.641-13.679c0.146 0.019 0.29 0.044 0.441 0.044 0.455 0 0.888-0.094 1.287-0.252l10.653 14.61c-0.341 0.459-0.568 0.999-0.653 1.59H31.538C31.402 46.63 30.895 45.81 30.16 45.263zM50.55 44.604c-0.614 0.08-1.178 0.312-1.651 0.666l-10.501-14.4c0.732-0.573 1.225-1.423 1.326-2.397l11.117-4.033c0.523 0.571 1.228 0.965 2.026 1.094L50.55 44.604z" fill="#ffffff" data-fill-palette-color="accent"></path></svg></g></svg></g></svg></g><defs></defs></svg><rect width="395.52" height="84.63254445031086" fill="none" stroke="none" visibility="hidden"></rect></g></svg></g></svg>